<?xml version="1.0" standalone="no"?>
<!DOCTYPE svg PUBLIC "-//W3C//DTD SVG 20010904//EN"
 "http://www.w3.org/TR/2001/REC-SVG-20010904/DTD/svg10.dtd">
<svg version="1.0" xmlns="http://www.w3.org/2000/svg"
 width="1518.000000pt" height="1200.000000pt" viewBox="0 0 1518.000000 1200.000000"
 preserveAspectRatio="xMidYMid meet">

<g transform="translate(0.000000,1200.000000) scale(0.100000,-0.100000)"
fill="#000000" stroke="none">
<path d="M8476 11011 c-4 -5 3 -7 14 -4 23 6 26 13 6 13 -8 0 -17 -4 -20 -9z"/>
<path d="M9204 10996 c0 -14 6 -22 14 -19 15 6 16 23 1 23 -5 0 -7 5 -4 10 3
6 2 10 -3 10 -6 0 -9 -11 -8 -24z"/>
<path d="M8440 10990 c-9 -6 -10 -10 -3 -10 6 0 15 5 18 10 8 12 4 12 -15 0z"/>
<path d="M9287 10969 c7 -7 15 -10 18 -7 3 3 -2 9 -12 12 -14 6 -15 5 -6 -5z"/>
<path d="M8361 10949 c-25 -15 -31 -23 -23 -31 9 -9 19 -8 38 2 14 8 21 16 15
18 -9 3 -9 8 0 18 15 19 10 18 -30 -7z m19 -13 c0 -2 -7 -7 -16 -10 -8 -3 -12
-2 -9 4 6 10 25 14 25 6z"/>
<path d="M8418 10963 c7 -3 16 -2 19 1 4 3 -2 6 -13 5 -11 0 -14 -3 -6 -6z"/>
<path d="M9300 10943 c14 -2 30 -9 35 -15 7 -7 1 -9 -17 -4 -30 7 -40 -9 -10
-17 13 -4 13 -5 -4 -6 -13 -1 -24 6 -26 17 -7 25 -135 31 -144 7 -9 -23 -494
-23 -494 0 0 8 -9 15 -20 15 -12 0 -20 -7 -20 -16 0 -11 -8 -15 -32 -12 -18 1
-36 7 -40 13 -5 6 -8 5 -8 -2 0 -7 -5 -13 -11 -13 -5 0 -8 4 -4 9 3 5 1 13 -5
16 -6 4 -9 1 -8 -7 2 -8 -4 -12 -14 -10 -10 2 -18 -2 -18 -8 0 -13 -37 -13
-42 0 -2 7 -17 5 -43 -5 -21 -10 -46 -18 -54 -20 -9 -2 -25 -6 -36 -10 -16 -6
-16 -3 5 13 13 11 29 18 34 15 5 -3 6 -1 2 6 -11 17 -78 -23 -99 -59 -18 -30
-19 -164 -21 -2846 -2 -1400 5 -1278 -74 -1327 -164 -102 -432 -247 -458 -247
-21 0 -102 41 -255 131 -123 72 -233 139 -244 150 -19 18 -20 35 -23 297 -4
334 -9 317 116 389 48 27 152 87 231 133 98 57 155 84 176 84 33 0 105 -34
243 -115 45 -27 85 -49 87 -49 2 0 26 -13 52 -30 56 -35 76 -39 42 -7 -19 18
-24 31 -22 67 1 25 2 332 3 682 2 618 2 637 21 643 18 6 18 8 3 23 -11 10 -13
17 -5 20 6 2 11 8 11 14 0 6 -7 7 -16 4 -8 -3 -12 -2 -9 4 3 6 1 10 -5 10 -6
0 -16 5 -23 11 -30 26 -236 140 -272 151 -56 15 -182 13 -231 -4 -36 -13 -464
-256 -1184 -673 -102 -59 -218 -126 -259 -149 -110 -61 -164 -115 -208 -204
l-38 -76 -3 -890 c-2 -863 -2 -893 17 -956 20 -63 75 -150 122 -191 13 -11 48
-34 79 -51 30 -17 256 -148 502 -290 858 -495 939 -540 986 -555 32 -10 74
-13 132 -10 102 5 100 4 425 192 132 76 454 261 715 410 303 174 494 289 527
319 34 31 64 71 85 114 l33 67 3 617 2 618 421 0 c511 0 467 -12 558 149 35
62 59 116 55 122 -4 8 -3 9 4 5 13 -8 46 49 37 64 -3 5 0 12 6 16 8 5 9 3 4
-7 -6 -11 -5 -11 4 -3 10 9 10 17 2 32 -14 26 -15 54 -2 33 6 -10 13 -5 25 20
16 31 16 36 -1 66 -14 27 -15 38 -6 63 20 53 14 308 -7 295 -4 -3 -6 4 -3 16
5 18 9 15 34 -23 16 -24 29 -40 29 -35 0 7 -26 53 -58 102 -6 11 -15 27 -19
35 -20 46 -158 278 -176 298 -11 12 -37 26 -56 32 -21 6 -205 10 -443 10
l-408 0 0 1106 c0 734 -3 1103 -10 1099 -5 -3 -10 3 -10 14 0 12 -4 21 -10 21
-5 0 -10 6 -10 14 0 9 -10 12 -32 10 -32 -3 -32 -3 -13 12 19 16 19 16 -5 9
-14 -4 -27 -7 -30 -7 -21 0 -26 5 -26 25 1 18 -5 22 -34 24 -23 1 -27 -1 -10
-4z m-60 -56 c0 -4 -20 -7 -45 -6 -49 3 -62 18 -17 20 16 1 20 3 10 6 -10 2
-18 9 -18 14 0 11 69 -23 70 -34z m-840 3 c0 -5 -10 -10 -22 -10 -19 0 -20 2
-8 10 19 13 30 13 30 0z m907 -6 c-3 -3 -12 -4 -19 -1 -8 3 -5 6 6 6 11 1 17
-2 13 -5z m1275 -2666 l-12 -23 6 24 c4 16 3 21 -5 17 -7 -5 -9 -1 -5 9 5 11
10 13 17 6 7 -7 7 -17 -1 -33z"/>
<path d="M9363 10916 c0 -8 6 -12 14 -9 7 3 10 9 7 14 -8 14 -21 11 -21 -5z"/>
<path d="M10646 8113 c-6 -14 -5 -15 5 -6 7 7 10 15 7 18 -3 3 -9 -2 -12 -12z"/>
<path d="M10645 7809 c-4 -6 -5 -12 -2 -15 2 -3 7 2 10 11 7 17 1 20 -8 4z"/>
<path d="M10605 7740 c-10 -11 -16 -22 -13 -25 3 -3 13 6 22 20 20 30 16 32
-9 5z"/>
<path d="M8135 7380 c-3 -5 -2 -10 4 -10 5 0 13 5 16 10 3 6 2 10 -4 10 -5 0
-13 -4 -16 -10z"/>
<path d="M4242 4461 c2 -5 93 -106 203 -225 l199 -216 153 0 c84 0 153 3 153
6 0 3 -51 87 -113 187 -62 100 -123 199 -136 220 l-23 37 -220 0 c-124 0 -218
-4 -216 -9z"/>
<path d="M12038 4428 c-15 -27 -9 -17 -120 -200 -48 -79 -97 -158 -109 -175
l-21 -33 144 0 145 0 88 98 c84 93 168 184 264 285 l45 47 -212 0 c-209 0
-211 0 -224 -22z"/>
<path d="M3793 4012 c-72 -92 -150 -191 -173 -219 l-42 -53 189 0 188 1 80
104 c44 57 83 104 86 105 4 0 44 -47 90 -105 l84 -104 188 -1 187 0 -85 108
c-46 59 -124 157 -172 217 l-88 110 -200 2 -200 3 -132 -168z"/>
<path d="M11128 4153 c-19 -21 -240 -297 -321 -400 -7 -10 29 -13 175 -13
l185 0 79 105 c43 57 84 104 90 105 6 0 18 -8 25 -19 21 -28 131 -164 146
-179 9 -9 56 -12 191 -10 l180 3 -155 195 c-85 107 -163 205 -174 218 -18 21
-24 22 -207 22 l-188 0 -26 -27z"/>
<path d="M4014 3630 c-261 -29 -426 -166 -489 -405 -31 -118 -37 -296 -32
-1040 5 -811 4 -808 72 -953 64 -136 187 -235 345 -278 102 -28 339 -26 445 4
202 58 316 177 377 397 23 80 23 80 23 920 0 763 -2 847 -17 915 -52 223 -186
367 -390 419 -88 23 -237 32 -334 21z m188 -380 c55 -16 94 -54 117 -116 20
-53 21 -73 21 -847 0 -506 -4 -805 -10 -828 -13 -46 -47 -96 -83 -123 -39 -29
-151 -35 -213 -11 -57 21 -99 77 -114 149 -7 35 -10 302 -8 841 l3 790 23 47
c35 71 94 106 182 107 25 1 62 -4 82 -9z"/>
<path d="M7110 3629 c-245 -29 -406 -162 -471 -392 l-24 -82 0 -870 c0 -969
-3 -922 70 -1071 63 -128 168 -212 320 -256 104 -29 323 -32 425 -5 212 57
331 179 392 402 20 76 21 106 26 578 l4 497 -296 0 -296 0 0 -185 0 -184 98
-3 97 -3 -1 -280 c0 -198 -4 -293 -13 -325 -41 -142 -246 -189 -356 -82 -67
66 -66 60 -63 947 3 787 3 790 25 830 53 99 150 136 268 104 49 -14 106 -71
123 -125 8 -22 16 -115 19 -221 l6 -183 194 0 194 0 -2 158 c-2 234 -20 348
-71 462 -52 116 -160 212 -286 256 -65 22 -213 45 -277 43 -16 -1 -64 -5 -105
-10z"/>
<path d="M1990 3338 l1 -273 202 -213 202 -213 3 295 2 296 136 0 c154 0 203
-11 245 -53 67 -67 64 -23 67 -862 2 -512 -1 -776 -8 -810 -15 -69 -53 -123
-103 -146 -35 -15 -66 -19 -189 -19 l-148 0 -2 294 -3 294 -202 -211 -202
-212 -1 -273 0 -274 408 5 c446 4 452 5 582 68 125 62 213 178 257 340 17 59
18 133 18 914 0 793 -1 854 -18 915 -59 210 -183 333 -388 386 -53 14 -133 18
-461 21 l-398 5 0 -274z"/>
<path d="M5025 3598 c-3 -7 -4 -602 -3 -1323 l3 -1310 185 0 185 0 5 942 5
942 29 -107 c16 -59 53 -197 83 -307 30 -110 111 -409 179 -665 69 -256 134
-494 143 -530 10 -36 31 -113 47 -173 l29 -107 212 0 213 0 0 1325 0 1325
-182 -2 -183 -3 -5 -780 c-3 -429 -6 -777 -8 -772 -1 4 -70 260 -153 570 -83
309 -177 657 -208 772 l-57 210 -257 3 c-201 2 -259 0 -262 -10z"/>
<path d="M8590 3420 l0 -190 215 0 215 0 2 -1132 3 -1133 205 0 205 0 2 1120
c2 616 3 1126 3 1133 0 9 50 12 215 12 l215 0 -2 188 -3 187 -637 3 -638 2 0
-190z"/>
<path d="M10067 3604 c-4 -4 -7 -601 -7 -1326 l0 -1318 205 0 205 0 -2 1323
-3 1322 -196 3 c-107 1 -198 -1 -202 -4z"/>
<path d="M10786 3603 c-3 -4 -6 -599 -6 -1323 l0 -1317 128 3 c70 1 324 2 565
3 l437 1 0 180 0 180 -357 2 -358 3 0 390 0 390 283 3 282 2 0 185 0 185 -285
0 -285 0 0 370 0 370 360 0 360 0 -2 184 -3 184 -556 5 c-306 3 -560 3 -563 0z"/>
<path d="M12170 2285 l0 -1315 185 0 185 0 1 953 c0 531 4 941 9 927 19 -57
110 -391 110 -405 0 -8 5 -15 11 -15 5 0 8 -4 5 -9 -3 -5 7 -55 23 -112 16
-57 39 -142 51 -189 12 -47 29 -107 36 -135 69 -246 104 -377 104 -387 0 -7 7
-26 15 -42 8 -15 12 -33 8 -39 -4 -6 0 -8 11 -4 13 5 15 3 7 -12 -6 -11 -7
-29 -1 -47 4 -16 9 -22 10 -14 1 11 4 9 10 -5 12 -28 12 -43 -1 -25 -8 12 -9
11 -5 -5 11 -38 36 -136 36 -139 0 -1 7 -3 16 -3 13 0 15 7 11 34 -3 18 -2 33
4 33 5 0 9 -24 9 -52 0 -37 -3 -48 -10 -38 -17 28 -20 3 -5 -56 48 -183 58
-214 71 -214 8 0 14 5 14 11 0 5 -4 8 -9 5 -9 -6 -11 -2 -34 82 -13 45 -13 52
-1 52 14 0 13 14 -3 75 l-6 20 -8 -20 c-7 -19 -8 -19 -8 2 -1 12 4 25 9 28 6
4 8 11 5 16 -10 16 7 10 20 -7 9 -13 12 -13 12 -3 0 8 2 19 3 24 6 23 -1 33
-20 28 -16 -4 -20 0 -20 20 0 14 -4 37 -10 51 -9 23 -7 26 14 26 14 0 26 -5
28 -12 5 -13 24 160 34 305 3 48 9 87 14 87 5 0 11 38 15 85 4 47 11 83 15 80
4 -2 10 23 14 57 9 87 8 98 -9 98 -11 0 -15 11 -15 40 0 36 3 40 25 40 l25 0
0 160 c0 100 4 160 10 160 6 0 10 17 10 38 0 21 4 42 9 48 15 16 31 187 25
252 -5 44 -3 62 5 62 7 0 11 26 11 79 0 47 4 81 11 83 6 2 14 91 20 233 6 127
15 232 20 233 5 2 9 21 9 43 l0 39 79 0 c54 0 81 -4 84 -12 3 -8 6 -6 6 5 1
16 -14 17 -179 17 l-180 0 2 -794 c2 -437 0 -792 -4 -789 -5 2 -8 -2 -8 -9 0
-9 -3 -9 -10 2 -6 10 -10 11 -10 3 0 -7 -5 -13 -11 -13 -5 0 -3 10 5 22 18 25
22 53 7 43 -6 -3 -9 3 -9 12 3 30 -34 173 -43 167 -4 -2 -13 5 -19 16 -6 12
-7 20 -1 20 5 0 12 -6 14 -12 3 -8 6 -7 6 4 1 9 -4 20 -9 23 -6 4 -10 12 -9
18 1 7 1 23 0 37 -1 20 -3 22 -12 10 -8 -12 -9 -11 -5 6 4 11 -3 54 -14 95
-12 40 -25 90 -29 109 -5 19 -32 121 -60 225 -28 105 -63 235 -77 290 -15 55
-32 118 -39 140 -7 22 -16 58 -20 79 -6 28 -10 34 -17 24 -7 -9 -8 -7 -4 7 3
11 -6 61 -20 110 -23 83 -29 109 -33 143 -1 9 -60 12 -261 12 l-260 0 0 -1315z
m967 533 c-2 -13 -4 -3 -4 22 0 25 2 35 4 23 2 -13 2 -33 0 -45z m-230 -210
c-3 -8 -6 -5 -6 6 -1 11 2 17 5 13 3 -3 4 -12 1 -19z m88 -318 c-4 -12 -9 -19
-12 -17 -3 3 -2 15 2 27 4 12 9 19 12 17 3 -3 2 -15 -2 -27z m32 -133 c-6 -19
-22 -6 -25 20 -2 27 -2 27 13 8 8 -10 14 -23 12 -28z m42 -67 c0 -14 -7 -1
-14 30 -18 72 -18 98 1 40 7 -25 13 -56 13 -70z m-302 68 c-3 -8 -6 -5 -6 6
-1 11 2 17 5 13 3 -3 4 -12 1 -19z m289 -144 c-9 -8 -16 -20 -16 -25 0 -6 -4
-7 -10 -4 -6 4 -2 15 10 27 11 12 20 27 21 32 0 6 3 5 6 -1 2 -7 -3 -20 -11
-29z m-9 -396 c-2 -13 -4 -3 -4 22 0 25 2 35 4 23 2 -13 2 -33 0 -45z m-100
-40 c-3 -8 -6 -5 -6 6 -1 11 2 17 5 13 3 -3 4 -12 1 -19z m10 -60 c-3 -7 -5
-2 -5 12 0 14 2 19 5 13 2 -7 2 -19 0 -25z m100 -124 c-3 -3 -12 -4 -19 -1 -8
3 -5 6 6 6 11 1 17 -2 13 -5z"/>
<path d="M13368 3513 c6 -2 18 -2 25 0 6 3 1 5 -13 5 -14 0 -19 -2 -12 -5z"/>
<path d="M13107 1213 c-4 -3 -7 -20 -7 -36 0 -17 3 -27 8 -23 5 6 11 66 6 66
0 0 -4 -3 -7 -7z"/>
<path d="M13075 1112 c-16 -12 -16 -32 0 -32 8 0 15 9 15 20 0 22 -1 23 -15
12z"/>
<path d="M13112 990 c0 -14 2 -19 5 -12 2 6 2 18 0 25 -3 6 -5 1 -5 -13z"/>
</g>
</svg>
